<?xml version="1.0" encoding="UTF-8"?>
<svg id="Layer_1" data-name="Layer 1" xmlns="http://www.w3.org/2000/svg" viewBox="0 0 407.63 662.81">
  <defs>
    <style>
      .cls-1 {
        fill: #d8a448;
      }

      .cls-2 {
        fill: #4fb4e7;
      }

      .cls-3 {
        fill: #f2ba46;
      }

      .cls-4 {
        fill: #e8a744;
      }

      .cls-5 {
        fill: #d93f35;
      }

      .cls-6 {
        fill: #a53330;
      }

      .cls-7 {
        fill: #284878;
      }

      .cls-8 {
        fill: #d2853f;
      }

      .cls-9 {
        fill: #b58d42;
      }

      .cls-10 {
        fill: #a7783c;
      }

      .cls-11 {
        fill: #4995cf;
      }

      .cls-12 {
        fill: #3985c3;
      }
    </style>
  </defs>
  <polygon class="cls-3" points="271.46 662.81 225.16 662.81 114.52 328.17 160.14 321.02 271.46 662.81"/>
  <polygon class="cls-4" points="290.86 633.54 271.46 662.81 160.14 321.02 190.78 315.92 290.86 633.54"/>
  <polygon class="cls-9" points="261.59 306.05 192.99 410.9 208.5 459.92 225.5 441.88 328.99 285.62 316.05 298.22 261.59 306.05"/>
  <polygon class="cls-10" points="311.29 278.47 316.05 298.22 97.5 330.22 91.71 313.88 311.29 278.47"/>
  <polygon class="cls-8" points="339.54 275.41 311.29 278.47 316.05 298.22 339.54 275.41"/>
  <polygon class="cls-12" points="54.95 321.02 0 165.45 299.71 104.51 348.39 275.41 54.95 321.02"/>
  <polygon class="cls-2" points="362.69 61.96 299.71 104.51 348.39 275.41 407.63 212.77 362.69 61.96"/>
  <polygon class="cls-11" points="92.05 115.07 0 165.45 299.71 104.51 362.69 61.96 92.05 115.07"/>
  <polygon class="cls-3" points="51.54 144.68 100.22 134.47 82.86 82.73 35.54 91.58 51.54 144.68"/>
  <polygon class="cls-4" points="128.48 117.45 100.22 134.47 82.86 82.73 110.44 66.39 128.48 117.45"/>
  <polygon class="cls-1" points="64.14 76.94 35.54 91.58 82.86 82.73 110.44 66.39 64.14 76.94"/>
  <polygon class="cls-5" points="230.7 59.69 203.71 66.39 149.93 76.94 131.54 17.37 213.24 0 230.7 59.69"/>
  <polygon class="cls-7" points="359.6 263.55 319.59 124.71 359.6 94.48 398.51 222.41 359.6 263.55"/>
  <polygon class="cls-6" points="230.7 59.68 203.71 66.38 245.92 204.25 271.79 200.17 230.7 59.68"/>
</svg>