<?xml version="1.0" encoding="utf-8"?>
<!-- Generator: Adobe Illustrator 27.0.0, SVG Export Plug-In . SVG Version: 6.00 Build 0)  -->
<svg version="1.1" id="Layer_1" xmlns="http://www.w3.org/2000/svg" xmlns:xlink="http://www.w3.org/1999/xlink" x="0px" y="0px"
	 viewBox="0 0 1922 1264" style="enable-background:new 0 0 1922 1264;" xml:space="preserve">
<style type="text/css">
	.st0{fill:#469E00;}
	.st1{fill:#522902;}
	.st2{fill:#395F14;}
	.st3{fill:#6D3702;}
	.st4{fill:#3F2100;}
	.st5{fill:#4D6B20;}
	.st6{fill:#2B5109;}
	.st7{fill:#2C4C00;}
	.st8{fill:#2D4E00;}
	.st9{fill:#717171;}
	.st10{fill:#4C8900;}
	.st11{fill:#3E6C00;}
	.st12{fill:#345800;}
	.st13{fill:#406800;}
	.st14{fill:#396100;}
	.st15{fill:#2B4C00;}
	.st16{fill:#2E1D08;}
	.st17{fill:#373400;}
	.st18{fill:#134E00;}
	.st19{fill:#1C7000;}
	.st20{fill:#1C7200;}
	.st21{fill:#104500;}
	.st22{fill:#113800;}
	.st23{fill:#145900;}
	.st24{fill:#165500;}
	.st25{fill:#4F8800;}
	.st26{fill:#3B6600;}
	.st27{fill:#2D5000;}
	.st28{fill:#979797;}
	.st29{fill:#3A6200;}
	.st30{fill:#4B7D00;}
	.st31{fill:#604C0D;}
	.st32{fill:#1D0400;}
	.st33{fill:#3F260B;}
	.st34{fill:#271A0A;}
	.st35{fill:#752F15;}
	.st36{fill:#473A13;}
	.st37{fill:#1A0A00;}
	.st38{fill:#6B6164;}
	.st39{fill:#1C1C1C;}
	.st40{fill:#343837;}
	.st41{fill:#484848;}
	.st42{fill:#141716;}
	.st43{fill:#4B4B4B;}
	.st44{fill:#1B7100;}
	.st45{fill:#145000;}
	.st46{fill:#186E00;}
	.st47{fill:#146300;}
	.st48{fill:#1B6E00;}
	.st49{fill:#0E4100;}
	.st50{fill:#2B1B0A;}
	.st51{fill:#2B1E0B;}
	.st52{fill:#2F1E09;}
	.st53{fill:#124400;}
	.st54{fill:#114600;}
	.st55{fill:#155E00;}
	.st56{fill:#154F00;}
	.st57{fill:#104A00;}
	.st58{fill:#124B00;}
	.st59{fill:#186400;}
	.st60{fill:#AE700C;}
	.st61{fill:#995700;}
	.st62{fill:#955400;}
	.st63{fill:#AE7400;}
	.st64{fill:#201303;}
	.st65{fill:#765000;}
	.st66{fill:#716C75;}
	.st67{fill:#0091E2;}
	.st68{fill:#005099;}
	.st69{fill:#0324D8;}
	.st70{fill:#001FB3;}
	.st71{fill:#1C9900;}
	.st72{fill:#138300;}
	.st73{fill:#1E9300;}
	.st74{fill:#1E8400;}
	.st75{fill:#248E00;}
	.st76{fill:#4AB600;}
	.st77{fill:#C7000C;}
	.st78{fill:#980000;}
	.st79{fill:#309100;}
	.st80{fill:#308200;}
	.st81{fill:#2D7000;}
	.st82{fill:#E7F000;}
	.st83{fill:#CBBF00;}
	.st84{fill:#47B600;}
	.st85{fill:#2C9100;}
	.st86{fill:#0026D5;}
	.st87{fill:#0023B8;}
	.st88{fill:#C5000F;}
	.st89{fill:#870006;}
	.st90{fill:#468E00;}
	.st91{fill:#3D7C00;}
	.st92{fill:#396800;}
	.st93{fill:#347800;}
	.st94{fill:#357000;}
	.st95{fill:#E20035;}
	.st96{fill:#AD002A;}
	.st97{fill:#FFFB00;}
	.st98{fill:#EABD00;}
	.st99{fill:url(#SVGID_1_);}
</style>
<g id="Layer_28">
	<polygon class="st0" points="1922,705 0,705 0,621.5 1922,621.5 	"/>
	<rect y="705" class="st1" width="1922" height="559"/>
	<polyline class="st2" points="1922,726.3 1922,705 1.5,705 1.5,716.3 2,716.3 6.3,716.3 6.3,721.1 11,721.1 11,709 16.1,709 
		16.1,721.1 20,721.1 20,716 25,716 25,725 30,725 30,720 34,720 34,716 38,716 38,721 43,721 43,725 48.1,725 48.1,720.5 52,720.5 
		52,715 57,715 57,724.5 66.1,724.5 66.1,717 70,717 70,720.8 76,720.8 76,716 80,716 80,720.9 84,720.9 84,713.3 88,713.3 88,721 
		94,721 94,715 98,715 98,725 102,725 102,720 107,720 107,716 111,716 111,720 116,720 116,725 120,725 120,721 125,721 125,716.4 
		129,716.4 129,725 139.4,725 139.4,716.5 143,716.5 143,721.3 148.7,721.3 148.7,709.2 153.8,709.2 153.8,721.3 157.7,721.3 
		157.7,716.2 162.7,716.2 162.7,725.2 167.7,725.2 167.7,720.2 171.7,720.2 171.7,716.2 175.7,716.2 175.7,721.2 180.7,721.2 
		180.7,725.2 185.8,725.2 185.8,720.7 189.7,720.7 189.7,715.2 194.7,715.2 194.7,724.7 203.8,724.7 203.8,717.2 207.7,717.2 
		207.7,721 213.7,721 213.7,716.2 217.7,716.2 217.7,721.1 221.7,721.1 221.7,713.5 225.7,713.5 225.7,721.2 231.7,721.2 
		231.7,715.2 235.7,715.2 235.7,725.2 239.7,725.2 239.7,720.2 244.7,720.2 244.7,716.2 248.7,716.2 248.7,720.2 253.7,720.2 
		253.7,725.2 257.7,725.2 257.7,721.2 262.7,721.2 262.7,716.6 266.7,716.6 266.7,725.2 277.1,725.2 277.1,716.5 277.6,716.6 
		281.9,716.6 281.9,721.5 286.6,721.5 286.6,709.3 291.7,709.3 291.7,721.5 295.6,721.5 295.6,716.3 300.6,716.3 300.6,725.3 
		305.6,725.3 305.6,720.3 309.6,720.3 309.6,716.3 313.6,716.3 313.6,721.3 318.6,721.3 318.6,725.3 323.7,725.3 323.7,720.9 
		327.6,720.9 327.6,715.3 332.6,715.3 332.6,724.9 341.7,724.9 341.7,717.3 345.6,717.3 345.6,721.2 351.6,721.2 351.6,716.3 
		355.6,716.3 355.6,721.3 359.6,721.3 359.6,713.7 363.6,713.7 363.6,721.3 369.6,721.3 369.6,715.3 373.6,715.3 373.6,725.3 
		377.6,725.3 377.6,720.3 382.6,720.3 382.6,716.3 386.6,716.3 386.6,720.3 391.6,720.3 391.6,725.3 395.6,725.3 395.6,721.3 
		400.6,721.3 400.6,716.7 404.6,716.7 404.6,725.3 415.1,725.3 415.1,716.8 418.6,716.8 418.6,721.7 424.3,721.7 424.3,709.5 
		429.4,709.5 429.4,721.7 433.3,721.7 433.3,716.5 438.3,716.5 438.3,725.5 443.3,725.5 443.3,720.5 447.3,720.5 447.3,716.5 
		451.3,716.5 451.3,721.5 456.3,721.5 456.3,725.5 461.4,725.5 461.4,721.1 465.3,721.1 465.3,715.5 470.3,715.5 470.3,725.1 
		479.4,725.1 479.4,717.5 483.3,717.5 483.3,721.4 489.3,721.4 489.3,716.5 493.3,716.5 493.3,721.5 497.3,721.5 497.3,713.8 
		501.3,713.8 501.3,721.5 507.3,721.5 507.3,715.5 511.3,715.5 511.3,725.5 515.3,725.5 515.3,720.5 520.3,720.5 520.3,716.5 
		524.3,716.5 524.3,720.5 529.3,720.5 529.3,725.5 533.3,725.5 533.3,721.5 538.3,721.5 538.3,716.9 542.3,716.9 542.3,725.5 
		552.7,725.5 552.7,716.8 553.4,716.8 557.7,716.8 557.7,721.6 562.4,721.6 562.4,709.5 567.5,709.5 567.5,721.6 571.4,721.6 
		571.4,716.5 576.4,716.5 576.4,725.5 581.4,725.5 581.4,720.5 585.4,720.5 585.4,716.5 589.4,716.5 589.4,721.5 594.4,721.5 
		594.4,725.5 599.5,725.5 599.5,721 603.4,721 603.4,715.5 608.4,715.5 608.4,725 617.6,725 617.6,717.5 621.5,717.5 621.5,721.3 
		627.4,721.3 627.4,716.5 631.4,716.5 631.4,721.4 635.4,721.4 635.4,713.8 639.4,713.8 639.4,721.5 645.4,721.5 645.4,715.5 
		649.4,715.5 649.4,725.5 653.4,725.5 653.4,720.5 658.4,720.5 658.4,716.5 662.4,716.5 662.4,720.5 667.4,720.5 667.4,725.5 
		671.4,725.5 671.4,721.5 676.4,721.5 676.4,716.9 680.4,716.9 680.4,725.5 690.9,725.5 690.9,717 694.4,717 694.4,721.8 
		700.1,721.8 700.1,709.7 705.2,709.7 705.2,721.8 709.1,721.8 709.1,716.7 714.1,716.7 714.1,725.7 719.1,725.7 719.1,720.7 
		723.1,720.7 723.1,716.7 727.1,716.7 727.1,721.7 732.1,721.7 732.1,725.7 737.2,725.7 737.2,721.2 741.1,721.2 741.1,715.7 
		746.1,715.7 746.1,725.2 755.2,725.2 755.2,717.7 759.2,717.7 759.2,721.5 765.1,721.5 765.1,716.7 769.1,716.7 769.1,721.6 
		773.1,721.6 773.1,714 777.1,714 777.1,721.7 783.1,721.7 783.1,715.7 787.1,715.7 787.1,725.7 791.1,725.7 791.1,720.7 
		796.1,720.7 796.1,716.7 800.1,716.7 800.1,720.7 805.1,720.7 805.1,725.7 809.1,725.7 809.1,721.7 814.1,721.7 814.1,717.1 
		818.1,717.1 818.1,725.7 828.5,725.7 828.5,717 829,717.2 833.3,717.2 833.3,722 838,722 838,709.9 843.1,709.9 843.1,722 847,722 
		847,716.9 852,716.9 852,725.9 857,725.9 857,720.9 861,720.9 861,716.9 865,716.9 865,721.9 870,721.9 870,725.9 875.2,725.9 
		875.2,721.4 879,721.4 879,715.9 884,715.9 884,725.4 893.2,725.4 893.2,717.9 897.1,717.9 897.1,721.7 903,721.7 903,716.9 
		907,716.9 907,721.8 911,721.8 911,714.2 915,714.2 915,721.9 921,721.9 921,715.9 925,715.9 925,725.9 929,725.9 929,720.9 
		934,720.9 934,716.8 938,716.8 938,720.8 943,720.8 943,725.9 947,725.9 947,721.9 952,721.9 952,717.2 956,717.2 956,725.9 
		966.5,725.9 966.5,717.4 970,717.3 970,722.2 975.7,722.2 975.7,710.1 980.8,710.1 980.8,722.2 984.7,722.2 984.7,717.1 
		989.7,717.1 989.7,726.1 994.7,726.1 994.7,721.1 998.7,721.1 998.7,717.1 1002.7,717.1 1002.7,722.1 1007.7,722.1 1007.7,726.1 
		1012.8,726.1 1012.8,721.6 1016.7,721.6 1016.7,716.1 1021.7,716.1 1021.7,725.6 1030.8,725.6 1030.8,718.1 1034.8,718.1 
		1034.8,721.9 1040.7,721.9 1040.7,717.1 1044.7,717.1 1044.7,722 1048.7,722 1048.7,714.4 1052.7,714.4 1052.7,722.1 1058.7,722.1 
		1058.7,716.1 1062.7,716.1 1062.7,726.1 1066.7,726.1 1066.7,721.1 1071.7,721.1 1071.7,717 1075.7,717 1075.7,721.1 1080.7,721.1 
		1080.7,726.1 1084.7,726.1 1084.7,722.1 1089.7,722.1 1089.7,717.5 1093.7,717.5 1093.7,726.1 1104.2,726.1 1104.2,716.9 
		1109,716.9 1109,721.7 1113.7,721.7 1113.7,709.6 1118.8,709.6 1118.8,721.7 1122.7,721.7 1122.7,716.6 1127.7,716.6 1127.7,725.6 
		1132.7,725.6 1132.7,720.6 1136.7,720.6 1136.7,716.6 1140.7,716.6 1140.7,721.6 1145.7,721.6 1145.7,725.6 1150.8,725.6 
		1150.8,721.1 1154.7,721.1 1154.7,715.6 1159.7,715.6 1159.7,725.1 1168.9,725.1 1168.9,717.6 1172.8,717.6 1172.8,721.4 
		1178.7,721.4 1178.7,716.6 1182.7,716.6 1182.7,721.5 1186.7,721.5 1186.7,713.9 1190.7,713.9 1190.7,721.6 1196.7,721.6 
		1196.7,715.6 1200.7,715.6 1200.7,725.6 1204.7,725.6 1204.7,720.6 1209.7,720.6 1209.7,716.6 1213.7,716.6 1213.7,720.6 
		1218.7,720.6 1218.7,725.6 1222.7,725.6 1222.7,721.6 1227.7,721.6 1227.7,717 1231.7,717 1231.7,725.6 1242.2,725.6 1242.2,717.1 
		1245.7,717.1 1245.7,721.9 1251.4,721.9 1251.4,709.8 1256.5,709.8 1256.5,721.9 1260.4,721.9 1260.4,716.8 1265.4,716.8 
		1265.4,725.8 1270.4,725.8 1270.4,720.8 1274.4,720.8 1274.4,716.8 1278.4,716.8 1278.4,721.8 1283.4,721.8 1283.4,725.8 
		1288.5,725.8 1288.5,721.3 1292.4,721.3 1292.4,715.8 1297.4,715.8 1297.4,725.3 1306.5,725.3 1306.5,717.8 1310.4,717.8 
		1310.4,721.6 1316.4,721.6 1316.4,716.8 1320.4,716.8 1320.4,721.7 1324.4,721.7 1324.4,714.1 1328.4,714.1 1328.4,721.8 
		1334.4,721.8 1334.4,715.8 1338.4,715.8 1338.4,725.8 1342.4,725.8 1342.4,720.8 1347.4,720.8 1347.4,716.8 1351.4,716.8 
		1351.4,720.8 1356.4,720.8 1356.4,725.8 1360.4,725.8 1360.4,721.8 1365.4,721.8 1365.4,717.2 1369.4,717.2 1369.4,725.8 
		1379.9,725.8 1379.9,717.1 1380.4,717.2 1384.7,717.2 1384.7,722.1 1389.4,722.1 1389.4,709.9 1394.4,709.9 1394.4,722.1 
		1398.4,722.1 1398.4,716.9 1403.4,716.9 1403.4,725.9 1408.4,725.9 1408.4,720.9 1412.4,720.9 1412.4,716.9 1416.4,716.9 
		1416.4,721.9 1421.4,721.9 1421.4,725.9 1426.5,725.9 1426.5,721.5 1430.4,721.5 1430.4,715.9 1435.4,715.9 1435.4,725.5 
		1444.5,725.5 1444.5,717.9 1448.4,717.9 1448.4,721.8 1454.4,721.8 1454.4,716.9 1458.4,716.9 1458.4,721.9 1462.4,721.9 
		1462.4,714.2 1466.4,714.2 1466.4,721.9 1472.4,721.9 1472.4,715.9 1476.4,715.9 1476.4,725.9 1480.4,725.9 1480.4,720.9 
		1485.4,720.9 1485.4,716.9 1489.4,716.9 1489.4,720.9 1494.4,720.9 1494.4,725.9 1498.4,725.9 1498.4,721.9 1503.4,721.9 
		1503.4,717.3 1507.4,717.3 1507.4,725.9 1517.8,725.9 1517.8,717.4 1521.3,717.4 1521.3,722.3 1527,722.3 1527,710.1 1532.1,710.1 
		1532.1,722.3 1536,722.3 1536,717.1 1541,717.1 1541,726.1 1546,726.1 1546,721.1 1550,721.1 1550,717.1 1554,717.1 1554,722.1 
		1559,722.1 1559,726.1 1564.1,726.1 1564.1,721.7 1568,721.7 1568,716.1 1573,716.1 1573,725.7 1582.2,725.7 1582.2,718.1 
		1586.1,718.1 1586.1,722 1592,722 1592,717.1 1596,717.1 1596,722.1 1600,722.1 1600,714.5 1604,714.5 1604,722.1 1610,722.1 
		1610,716.1 1614,716.1 1614,726.1 1618,726.1 1618,721.1 1623,721.1 1623,717.1 1627,717.1 1627,721.1 1632,721.1 1632,726.1 
		1636,726.1 1636,722.1 1641,722.1 1641,717.5 1645,717.5 1645,726.1 1655.5,726.1 1655.5,717.4 1656.2,717.4 1660.5,717.4 
		1660.5,722.2 1665.2,722.2 1665.2,710.1 1670.3,710.1 1670.3,722.2 1674.2,722.2 1674.2,717.1 1679.2,717.1 1679.2,726.1 
		1684.2,726.1 1684.2,721.1 1688.2,721.1 1688.2,717.1 1692.2,717.1 1692.2,722.1 1697.2,722.1 1697.2,726.1 1702.3,726.1 
		1702.3,721.6 1706.2,721.6 1706.2,716.1 1711.2,716.1 1711.2,725.6 1720.3,725.6 1720.3,718.1 1724.2,718.1 1724.2,721.9 
		1730.2,721.9 1730.2,717.1 1734.2,717.1 1734.2,722 1738.2,722 1738.2,714.4 1742.2,714.4 1742.2,722.1 1748.2,722.1 1748.2,716.1 
		1752.2,716.1 1752.2,726.1 1756.2,726.1 1756.2,721.1 1761.2,721.1 1761.2,717.1 1765.2,717.1 1765.2,721.1 1770.2,721.1 
		1770.2,726.1 1774.2,726.1 1774.2,722.1 1779.2,722.1 1779.2,717.5 1783.2,717.5 1783.2,726.1 1793.6,726.1 1793.6,717.6 
		1797.2,717.6 1797.2,722.4 1802.8,722.4 1802.8,710.3 1807.9,710.3 1807.9,722.4 1811.8,722.4 1811.8,717.3 1816.8,717.3 
		1816.8,726.3 1821.8,726.3 1821.8,721.3 1825.8,721.3 1825.8,717.3 1829.8,717.3 1829.8,722.3 1834.8,722.3 1834.8,726.3 
		1840,726.3 1840,721.8 1843.8,721.8 1843.8,716.3 1848.8,716.3 1848.8,725.8 1858,725.8 1858,718.3 1861.9,718.3 1861.9,722.1 
		1867.8,722.1 1867.8,717.3 1871.8,717.3 1871.8,722.2 1875.8,722.2 1875.8,714.6 1879.8,714.6 1879.8,722.3 1885.8,722.3 
		1885.8,716.3 1889.8,716.3 1889.8,726.3 1893.8,726.3 1893.8,721.3 1898.8,721.3 1898.8,717.3 1902.8,717.3 1902.8,721.3 
		1907.8,721.3 1907.8,726.3 1911.8,726.3 1911.8,722.3 1916.8,722.3 1916.8,717.7 1920.8,717.7 1920.8,726.3 	"/>
	<polygon class="st3" points="854,1264 854,704.6 862.2,689 862.2,1264 	"/>
	<polygon class="st3" points="1062,1264 1072,1264 1072,704.5 1062.5,689 	"/>
	<polygon class="st4" points="862.2,689 1062.5,689 1062,1264 862.2,1263.1 	"/>
	<polygon class="st5" points="862.2,689 854,705 854,725.9 862.2,707.7 862.2,698 	"/>
	<polygon class="st6" points="1062.5,689 862.2,689 862.2,698 865.9,698 866,708 874,708 874,698 878,698 878,703.1 884,703.1 
		884,698 886.9,698 886.9,703 891,703 891,694 895,694 895,703.2 900,703.2 900,698 903,698 903,708 909,708 909,704 912,704 
		912,698.9 916,698.9 916,703 920,703 920,708.2 924,708.2 924,703 928,703 928,700.8 931,700.8 931,697.2 970,697.2 970,707 
		976,707 976,699 987,699 987,706.8 992,706.8 992,702 996,702 996,697.4 1000,697.4 1000,708 1008,708 1008,697 1012,697 1012,703 
		1016,703 1016,698 1021,698 1021,703 1026,703 1026,694 1028.7,694 1028.7,703 1034,703 1034,698 1037,698 1037,707 1042,707 
		1042,701 1047,701 1047,697 1051,697 1051,703 1056,703 1056,707 1062.5,706 	"/>
	<polygon class="st5" points="1062.5,706 1072,724.3 1072,705 1062.5,689 	"/>
</g>
<g id="Layer_26">
	<g id="BirchTree">
		<rect x="1174" y="339" class="st7" width="42" height="47"/>
		<polygon class="st8" points="986,435 981,445 1197,445 1223.5,435 		"/>
		<rect x="1070" y="440" class="st9" width="47" height="184"/>
		<polygon class="st10" points="981,445 981,351.2 987,336 986,435 		"/>
		<polygon class="st11" points="986,435 1223.5,435 1223.5,385.8 1174.6,385.8 1174.6,336 987,336 		"/>
		<rect x="1027" y="250" class="st12" width="45" height="86"/>
		<polygon class="st13" points="1076,243 1076,336 1168.1,336 1168.1,292 1122.1,292 1122.1,243 		"/>
		<polygon class="st14" points="1072,250 1076,243 1076,336 1072,336 		"/>
		<rect x="1122" y="250" class="st15" width="41" height="42"/>
		<rect x="1093.8" y="601.5" width="11.9" height="2.8"/>
		<rect x="1091" y="598.7" width="11.9" height="2.8"/>
		<rect x="1093.8" y="579.7" width="11.9" height="2.8"/>
		<rect x="1096.7" y="582.5" width="6.3" height="2.8"/>
		<rect x="1108.6" y="567.8" width="8.4" height="2.1"/>
		<rect x="1114.9" y="569.9" width="2.1" height="3.5"/>
		<rect x="1105.8" y="565" width="2.8" height="2.8"/>
		<rect x="1082.6" y="567.8" width="5.6" height="2.8"/>
		<rect x="1076.3" y="570.6" width="6.3" height="2.8"/>
		<rect x="1070" y="567.8" width="6.3" height="8.4"/>
		<rect x="1114.2" y="591.7" width="2.8" height="7"/>
		<rect x="1110.7" y="595.9" width="3.5" height="2.8"/>
		<rect x="1070" y="595.9" width="9.1" height="2.8"/>
		<rect x="1073.5" y="598.7" width="2.8" height="2.8"/>
		<rect x="1104.4" y="616.9" width="9.1" height="2.8"/>
		<rect x="1107.9" y="614.1" width="2.8" height="2.8"/>
		<rect x="1077" y="617.6" width="11.9" height="2.8"/>
		<rect x="1079.8" y="620.4" width="6.3" height="2.8"/>
		<rect x="1081.2" y="510.1" width="11.9" height="2.8"/>
		<rect x="1084" y="512.9" width="11.9" height="2.8"/>
		<rect x="1081.2" y="531.9" width="11.9" height="2.8"/>
		<rect x="1084" y="529.1" width="6.3" height="2.8"/>
		<rect x="1070" y="544.5" width="8.4" height="2.1"/>
		<rect x="1070" y="541" width="2.1" height="3.5"/>
		<rect x="1078.4" y="546.6" width="2.8" height="2.8"/>
		<rect x="1098.7" y="543.8" width="5.6" height="2.8"/>
		<rect x="1104.3" y="541" width="6.3" height="2.8"/>
		<rect x="1110.7" y="538.2" width="6.3" height="8.4"/>
		<rect x="1070" y="515.7" width="2.8" height="7"/>
		<rect x="1072.8" y="515.7" width="3.5" height="2.8"/>
		<rect x="1107.8" y="515.7" width="9.1" height="2.8"/>
		<rect x="1110.7" y="512.9" width="2.8" height="2.8"/>
		<rect x="1073.5" y="494.7" width="9.1" height="2.8"/>
		<rect x="1076.3" y="497.5" width="2.8" height="2.8"/>
		<rect x="1098" y="494" width="11.9" height="2.8"/>
		<rect x="1100.8" y="491.2" width="6.3" height="2.8"/>
		<rect x="1094.1" y="462.4" width="11.9" height="2.8"/>
		<rect x="1091.3" y="459.6" width="11.9" height="2.8"/>
		<rect x="1094.1" y="440.6" width="11.9" height="2.8"/>
		<rect x="1096.9" y="443.5" width="6.3" height="2.8"/>
		<rect x="1114.5" y="452.6" width="2.8" height="7"/>
		<rect x="1110.9" y="456.8" width="3.5" height="2.8"/>
		<rect x="1070.3" y="456.8" width="9.1" height="2.8"/>
		<rect x="1073.8" y="459.6" width="2.8" height="2.8"/>
		<rect x="1104.6" y="477.8" width="9.1" height="2.8"/>
		<rect x="1108.2" y="475" width="2.8" height="2.8"/>
		<rect x="1077.3" y="478.5" width="11.9" height="2.8"/>
		<rect x="1080.1" y="481.3" width="6.3" height="2.8"/>
	</g>
</g>
<g id="Layer_25">
	<g id="OakTree">
		<rect x="542" y="485" class="st16" width="54" height="142"/>
		<rect x="596" y="485" class="st17" width="7" height="142"/>
		<rect x="630.6" y="378" class="st18" width="51.4" height="56.8"/>
		<polygon class="st19" points="682,432 673.1,429.6 673.1,485 712,487 712,439.4 705,438 705,389 682,378 		"/>
		<polygon class="st20" points="630.6,378 630.6,325.4 641,331 641,278.6 650,287 650,378 		"/>
		<rect x="529" y="279" class="st21" width="112" height="99"/>
		<rect x="474" y="354" class="st22" width="55" height="22"/>
		<polygon id="F" class="st23" points="673.1,485 673.1,429.6 622,429.6 622,375.3 462,375.3 462,485 		"/>
		<polygon class="st24" points="622,375.3 630.6,378 630.6,429.6 622,429.6 		"/>
	</g>
</g>
<g id="Layer_24">
	<g id="BirchTree-2">
		<polygon class="st25" points="524,57 541.9,73.1 541.9,142.3 557,155 557,184.5 523,185 523,57 		"/>
		<polygon class="st26" points="458,57 523.9,57 523.9,191 457.6,191 		"/>
		<polygon class="st27" points="310,350 195,323 486.2,323 506,332 577,332 633,355 393,355 375,350 		"/>
		<rect x="195" y="168.5" class="st11" width="291.2" height="154.5"/>
		<rect x="506" y="184.5" class="st11" width="71" height="147.5"/>
		<polygon class="st25" points="486.2,323 506,332 506,184.5 486.2,168.5 		"/>
		<polygon class="st25" points="577,332 633,355 633,230.1 577,184.5 		"/>
		<rect x="392" y="336.8" class="st9" width="67.3" height="352.2"/>
		<polygon class="st28" points="478,345 459.3,336.8 459.3,689 478,679.1 		"/>
		<rect x="326" y="55" class="st29" width="42" height="55"/>
		<polygon class="st11" points="298,110 298,170.7 437,170.7 437,38.5 367.5,38.5 367.5,110.1 		"/>
		<polygon class="st30" points="437,38.5 437,170.7 458.6,170.7 458.6,56.7 		"/>
		<rect x="408" y="562" width="17" height="4"/>
		<rect x="412" y="566" width="17" height="4"/>
		<rect x="408" y="593" width="17" height="4"/>
		<rect x="412" y="589" width="9" height="4"/>
		<rect x="392" y="611" width="12" height="3"/>
		<rect x="392" y="606" width="3" height="5"/>
		<rect x="404" y="614" width="4" height="4"/>
		<rect x="433" y="610" width="8" height="4"/>
		<rect x="441" y="606" width="9" height="4"/>
		<rect x="450" y="602" width="9" height="12"/>
		<rect x="392" y="570" width="4" height="10"/>
		<rect x="396" y="570" width="5" height="4"/>
		<rect x="446" y="570" width="13" height="4"/>
		<rect x="450" y="566" width="4" height="4"/>
		<rect x="397" y="540" width="13" height="4"/>
		<rect x="401" y="544" width="4" height="4"/>
		<rect x="432" y="539" width="17" height="4"/>
		<rect x="436" y="535" width="9" height="4"/>
		<rect x="426" y="488" width="17" height="4"/>
		<rect x="422" y="484" width="17" height="4"/>
		<rect x="426" y="457" width="17" height="4"/>
		<rect x="430" y="461" width="9" height="4"/>
		<rect x="447" y="440" width="12" height="3"/>
		<rect x="456" y="443" width="3" height="5"/>
		<rect x="443" y="436" width="4" height="4"/>
		<rect x="410" y="440" width="8" height="4"/>
		<rect x="401" y="444" width="9" height="4"/>
		<rect x="392" y="440" width="9" height="12"/>
		<rect x="455" y="474" width="4" height="10"/>
		<rect x="450" y="480" width="5" height="4"/>
		<rect x="392" y="480" width="13" height="4"/>
		<rect x="397" y="484" width="4" height="4"/>
		<rect x="441" y="510" width="13" height="4"/>
		<rect x="446" y="506" width="4" height="4"/>
		<rect x="402" y="511" width="17" height="4"/>
		<rect x="406" y="515" width="9" height="4"/>
		<rect x="408" y="364" width="17" height="4"/>
		<rect x="412" y="368" width="17" height="4"/>
		<rect x="408" y="395" width="17" height="4"/>
		<rect x="412" y="391" width="9" height="4"/>
		<rect x="392" y="413" width="12" height="3"/>
		<rect x="392" y="408" width="3" height="5"/>
		<rect x="404" y="416" width="4" height="4"/>
		<rect x="433" y="412" width="8" height="4"/>
		<rect x="441" y="408" width="9" height="4"/>
		<rect x="450" y="404" width="9" height="12"/>
		<rect x="392" y="372" width="4" height="10"/>
		<rect x="396" y="372" width="5" height="4"/>
		<rect x="446" y="372" width="13" height="4"/>
		<rect x="450" y="368" width="4" height="4"/>
		<rect x="397" y="342" width="13" height="4"/>
		<rect x="401" y="346" width="4" height="4"/>
		<rect x="432" y="341" width="17" height="4"/>
		<rect x="436" y="337" width="9" height="4"/>
		<rect x="426" y="685" width="17" height="4"/>
		<rect x="422" y="681" width="17" height="4"/>
		<rect x="426" y="654" width="17" height="4"/>
		<rect x="430" y="658" width="9" height="4"/>
		<rect x="447" y="637" width="12" height="3"/>
		<rect x="456" y="640" width="3" height="5"/>
		<rect x="443" y="633" width="4" height="4"/>
		<rect x="410" y="637" width="8" height="4"/>
		<rect x="401" y="641" width="9" height="4"/>
		<rect x="392" y="637" width="9" height="12"/>
		<rect x="455" y="671" width="4" height="10"/>
		<rect x="450" y="677" width="5" height="4"/>
		<rect x="392" y="677" width="13" height="4"/>
		<rect x="397" y="681" width="4" height="4"/>
		<polygon points="468.6,557.4 463.7,557.9 463.7,554.1 468.6,553.6 		"/>
		<polygon points="469.7,561 464.9,561.6 464.9,557.8 469.7,557.3 		"/>
		<polygon points="468.6,586.7 463.7,587.6 463.7,583.8 468.6,582.9 		"/>
		<polygon points="467.5,583.1 464.9,583.5 464.9,579.7 467.5,579.3 		"/>
		<polygon points="459,604.9 462.5,604.1 462.5,601.2 459,602 		"/>
		<polygon points="459.9,601.8 459,602 459,597.2 459.9,597 		"/>
		<polygon points="463.7,607.7 462.5,607.9 462.5,604.1 463.7,603.8 		"/>
		<polygon points="473.1,598 470.8,598.5 470.8,602.2 473.1,601.7 		"/>
		<polygon points="475.5,597.5 473.1,598 473.1,594.3 475.5,593.8 		"/>
		<polygon points="478,600.6 475.5,601.2 475.5,590 478,589.6 		"/>
		<polygon points="460.2,571.8 459,572 459,562.3 460.2,562.2 		"/>
		<polygon points="460.2,566 461.7,565.9 461.7,562 460.2,562.2 		"/>
		<polygon points="478,563.7 474.5,564.2 474.5,560.5 478,560 		"/>
		<polygon points="476.6,560.2 475.5,560.3 475.5,556.6 476.6,556.5 		"/>
		<polygon points="464.3,536.9 460.5,537.1 460.5,533.2 464.3,533.1 		"/>
		<polygon points="462.8,540.8 461.7,540.9 461.7,537 462.8,537 		"/>
		<polygon points="475.3,535.3 470.6,535.6 470.6,531.8 475.3,531.6 		"/>
		<polygon points="474.2,531.6 471.7,531.8 471.7,528 474.2,527.9 		"/>
		<polygon points="468.9,483.8 473.6,484.1 473.6,487.8 468.9,487.5 		"/>
		<polygon points="467.7,479.9 472.5,480.3 472.5,484 467.7,483.7 		"/>
		<polygon points="468.9,454.5 473.6,455.2 473.6,458.9 468.9,458.3 		"/>
		<polygon points="470,458.4 472.5,458.8 472.5,462.5 470,462.2 		"/>
		<polygon points="478,440.1 474.7,439.5 474.7,442.3 478,442.9 		"/>
		<polygon points="477.2,442.8 478,442.9 478,447.5 477.2,447.4 		"/>
		<polygon points="473.6,435.6 474.7,435.8 474.7,439.5 473.6,439.3 		"/>
		<polygon points="464.3,441.4 466.6,441.8 466.6,438 464.3,437.6 		"/>
		<polygon points="461.7,441 464.3,441.4 464.3,445.2 461.7,444.8 		"/>
		<polygon points="459,436.6 461.7,437.1 461.7,448.6 459,448.2 		"/>
		<polygon points="476.9,471.4 478,471.5 478,480.7 476.9,480.6 		"/>
		<polygon points="476.9,476.9 475.5,476.8 475.5,480.5 476.9,480.6 		"/>
		<polygon points="459,475.3 462.8,475.6 462.8,479.5 459,479.2 		"/>
		<polygon points="460.5,479.3 461.7,479.4 461.7,483.2 460.5,483.1 		"/>
		<polygon points="473.1,504.6 476.6,504.7 476.6,508.4 473.1,508.3 		"/>
		<polygon points="474.5,500.9 475.5,500.9 475.5,504.7 474.5,504.6 		"/>
		<polygon points="462,505.3 466.9,505.4 466.9,509.2 462,509.2 		"/>
		<polygon points="463.1,509.2 465.7,509.2 465.7,513 463.1,513 		"/>
		<polygon points="468.6,370.4 463.7,368.7 463.7,364.8 468.6,366.6 		"/>
		<polygon points="469.7,374.6 464.9,372.9 464.9,369.1 469.7,370.8 		"/>
		<polygon points="468.6,399.7 463.7,398.3 463.7,394.5 468.6,395.9 		"/>
		<polygon points="467.5,395.6 464.9,394.8 464.9,391 467.5,391.8 		"/>
		<polygon points="459,413.4 462.5,414.3 462.5,411.4 459,410.5 		"/>
		<polygon points="459.9,410.7 459,410.5 459,405.7 459.9,405.9 		"/>
		<polygon points="463.7,418.4 462.5,418.1 462.5,414.3 463.7,414.5 		"/>
		<polygon points="473.1,413.1 470.8,412.5 470.8,416.3 473.1,416.8 		"/>
		<polygon points="475.5,413.7 473.1,413.1 473.1,409.4 475.5,410 		"/>
		<polygon points="478,418 475.5,417.4 475.5,406.3 478,407 		"/>
		<polygon points="460.2,380.9 459,380.5 459,370.9 460.2,371.3 		"/>
		<polygon points="460.2,375.1 461.7,375.6 461.7,371.8 460.2,371.3 		"/>
		<polygon points="478,381.1 474.5,379.9 474.5,376.2 478,377.4 		"/>
		<polygon points="476.6,377 475.5,376.6 475.5,372.9 476.6,373.3 		"/>
		<polygon points="462.8,342.3 459.2,340.8 459.2,336.9 462.8,338.5 		"/>
		<polygon points="461.3,345.5 460.1,345 460.1,341.2 461.3,341.7 		"/>
		<polygon points="475.3,351.4 470.6,349.5 470.6,345.7 475.3,347.7 		"/>
		<polygon points="474.2,347.2 471.7,346.2 471.7,342.4 474.2,343.5 		"/>
		<polygon points="468.9,669.7 473.6,667.8 473.6,671.5 468.9,673.5 		"/>
		<polygon points="467.7,666.3 472.5,664.5 472.5,668.2 467.7,670.1 		"/>
		<polygon points="468.9,640.4 473.6,638.9 473.6,642.6 468.9,644.2 		"/>
		<polygon points="470,643.8 472.5,643 472.5,646.7 470,647.6 		"/>
		<polygon points="478,621.8 474.7,622.8 474.7,625.5 478,624.6 		"/>
		<polygon points="477.2,624.8 478,624.6 478,629.2 477.2,629.5 		"/>
		<polygon points="473.6,619.3 474.7,619 474.7,622.8 473.6,623 		"/>
		<polygon points="464.3,629.5 466.6,628.8 466.6,625 464.3,625.7 		"/>
		<polygon points="461.7,630.2 464.3,629.5 464.3,633.3 461.7,634.1 		"/>
		<polygon points="459,627.1 461.7,626.4 461.7,637.9 459,638.7 		"/>
		<polygon points="476.9,653.6 478,653.2 478,662.4 476.9,662.8 		"/>
		<polygon points="476.9,659.1 475.5,659.6 475.5,663.3 476.9,662.8 		"/>
		<polygon points="459,665.8 462.8,664.4 462.8,668.2 459,669.7 		"/>
		<polygon points="460.5,669.1 461.7,668.7 461.7,672.5 460.5,673 		"/>
		<polygon points="459,679.6 460.2,679.1 460.2,688.5 459,689 		"/>
		<polygon points="462.6,684.5 460.2,685.5 460.2,688.5 462.6,687.5 		"/>
	</g>
</g>
<g id="Layer_23">
	<g id="CraftingTable">
		<rect x="726" y="619" class="st31" width="67" height="70"/>
		<rect x="726" y="619" class="st32" width="4" height="70"/>
		<rect x="788" y="619" class="st32" width="5" height="70"/>
		<rect x="730" y="632" class="st33" width="58" height="4"/>
		<rect x="730" y="651" class="st33" width="58" height="4"/>
		<rect x="730" y="668" class="st33" width="58" height="4"/>
		<rect x="730" y="685" class="st34" width="58" height="4"/>
		<rect x="755" y="619" class="st32" width="8" height="70"/>
		<polygon class="st35" points="726,619 735,614 801,614 793,619 		"/>
		<polygon class="st36" points="793,619 793,689 801,682 801,614 		"/>
		<rect x="738" y="642" class="st37" width="4" height="13"/>
		<rect x="738" y="655" class="st38" width="4" height="9"/>
		<rect x="747" y="642" class="st37" width="4" height="13"/>
		<rect x="747" y="655" class="st38" width="4" height="9"/>
		<rect x="747" y="619" class="st32" width="4" height="4"/>
		<rect x="751" y="623" class="st32" width="4" height="4"/>
		<rect x="763" y="623" class="st32" width="4" height="4"/>
		<rect x="767" y="619" class="st32" width="4" height="4"/>
		<rect x="742" y="650.5" class="st38" width="5" height="4.5"/>
	</g>
</g>
<g id="Layer_22">
	<g id="Furnace">
		<rect x="929" y="610" class="st39" width="62" height="65"/>
		<rect x="933" y="614" class="st40" width="54" height="57"/>
		<rect x="933" y="647" class="st41" width="54" height="24"/>
		<rect x="941" y="630" class="st42" width="3" height="13"/>
		<rect x="944" y="627" class="st42" width="4" height="3"/>
		<rect x="948" y="623" class="st42" width="24" height="4"/>
		<rect x="972" y="627" class="st42" width="3" height="3"/>
		<rect x="975" y="630" class="st43" width="4" height="13"/>
		<rect x="944" y="639" class="st43" width="31" height="4"/>
		<polygon points="944,630 944,639 975,639 975,630 972,630 972,627 948,627 948,630 		"/>
		<rect x="960" y="614" class="st39" width="4" height="4"/>
		<rect x="983" y="630" class="st39" width="4" height="5"/>
		<rect x="933" y="643" class="st39" width="4" height="4"/>
		<rect x="937" y="663" class="st39" width="4" height="12"/>
		<rect x="941" y="660" class="st39" width="3" height="3"/>
		<rect x="944" y="656" class="st39" width="8" height="4"/>
		<rect x="952" y="651" class="st39" width="16" height="5"/>
		<rect x="968" y="656" class="st39" width="4" height="4"/>
		<polygon points="975,663 979,663 979,671 941,671 941,663 944,663 944,660 952,660 952,656 968,656 968,660 975,660 		"/>
	</g>
</g>
<g id="Layer_21">
	<g id="OakTree-2">
		<polygon class="st23" points="1277,421 1507,421 1507,481.8 1564.8,481.8 1564.8,542.1 1277,542.1 		"/>
		<polygon class="st44" points="1238,432 1277,421 1277,542.1 1230,537 1230,485.1 1238,485 		"/>
		<rect x="1310" y="313" class="st45" width="162" height="108"/>
		<polygon class="st46" points="1299,320 1310,313 1310,421 1299,421 		"/>
		<rect x="1378" y="307" class="st47" width="55" height="114"/>
		<polygon class="st48" points="1363.9,313 1378,307 1378,421 1363.9,421 		"/>
		<rect x="1507" y="424" class="st49" width="37" height="58"/>
		<rect x="1360" y="542" class="st50" width="58" height="93"/>
		<polygon class="st51" points="1351,542 1360,542 1360,635 1351,629.3 		"/>
	</g>
</g>
<g id="Layer_20">
	<g id="OakTree-3">
		<rect x="1796" y="553" class="st52" width="66" height="136"/>
		<polygon class="st52" points="1764.3,553 1796,553 1796,689 1764.3,682 		"/>
		<polygon class="st53" points="1763,405 1692,405 1692,477.5 1763,476 		"/>
		<rect x="1729" y="267" class="st54" width="67.7" height="71"/>
		<polygon class="st55" points="1833,257 1796.7,267 1796.7,330.8 1833,330.8 		"/>
		<polygon class="st56" points="1901.1,257 1833,257 1833,330.8 1762.9,330.8 1762.9,405 1901.1,405 		"/>
		<polygon class="st57" points="1796,399.3 1762.9,405 1763,476 1796,477.5 		"/>
		<rect x="1901.1" y="267" class="st58" width="18.9" height="132.3"/>
		<polygon class="st59" points="1700,277 1700,405 1763,405 1763,331 1729,338 1729,267 		"/>
		<polygon class="st23" points="1724.5,553 1920,553 1920,399.3 1796,399.3 1796,476.2 1725,475 		"/>
		<polygon class="st19" points="1586.3,482 1586.3,542.1 1724.5,553 1725,475 1692,477.5 1692,405 1610,415 1610,481 		"/>
	</g>
</g>
<g id="Layer_19">
	<g id="Ladder">
		<rect x="931" y="695" class="st60" width="58" height="4"/>
		<rect x="931" y="699" class="st61" width="58" height="4"/>
		<rect x="931" y="712" class="st60" width="58" height="4"/>
		<rect x="931" y="716" class="st61" width="58" height="4"/>
		<rect x="931" y="729" class="st60" width="58" height="4"/>
		<rect x="931" y="733" class="st61" width="58" height="4"/>
		<rect x="931" y="746" class="st60" width="58" height="4"/>
		<rect x="931" y="750" class="st61" width="58" height="4"/>
		<rect x="931" y="763" class="st60" width="58" height="4"/>
		<rect x="931" y="767" class="st61" width="58" height="4"/>
		<rect x="931" y="780" class="st60" width="58" height="4"/>
		<rect x="931" y="784" class="st61" width="58" height="4"/>
		<rect x="931" y="797" class="st60" width="58" height="4"/>
		<rect x="931" y="801" class="st61" width="58" height="4"/>
		<rect x="931" y="814" class="st60" width="58" height="4"/>
		<rect x="931" y="818" class="st61" width="58" height="4"/>
		<rect x="931" y="831" class="st60" width="58" height="4"/>
		<rect x="931" y="835" class="st61" width="58" height="4"/>
		<rect x="931" y="848" class="st60" width="58" height="4"/>
		<rect x="931" y="852" class="st61" width="58" height="4"/>
		<rect x="931" y="865" class="st60" width="58" height="4"/>
		<rect x="931" y="869" class="st61" width="58" height="4"/>
		<rect x="931" y="882" class="st60" width="58" height="4"/>
		<rect x="931" y="886" class="st61" width="58" height="4"/>
		<rect x="931" y="899" class="st60" width="58" height="4"/>
		<rect x="931" y="903" class="st61" width="58" height="4"/>
		<rect x="931" y="916" class="st60" width="58" height="4"/>
		<rect x="931" y="920" class="st61" width="58" height="4"/>
		<rect x="931" y="933" class="st60" width="58" height="4"/>
		<rect x="931" y="937" class="st61" width="58" height="4"/>
		<rect x="931" y="950" class="st60" width="58" height="4"/>
		<rect x="931" y="954" class="st61" width="58" height="4"/>
		<rect x="931" y="967" class="st60" width="58" height="4"/>
		<rect x="931" y="971" class="st61" width="58" height="4"/>
		<rect x="931" y="984" class="st60" width="58" height="4"/>
		<rect x="931" y="988" class="st61" width="58" height="4"/>
		<rect x="931" y="1001" class="st60" width="58" height="4"/>
		<rect x="931" y="1005" class="st61" width="58" height="4"/>
		<rect x="931" y="1018" class="st60" width="58" height="4"/>
		<rect x="931" y="1022" class="st61" width="58" height="4"/>
		<rect x="931" y="1035" class="st60" width="58" height="4"/>
		<rect x="931" y="1039" class="st61" width="58" height="4"/>
		<rect x="931" y="1052" class="st60" width="58" height="4"/>
		<rect x="931" y="1056" class="st61" width="58" height="4"/>
		<rect x="931" y="1069" class="st60" width="58" height="4"/>
		<rect x="931" y="1073" class="st61" width="58" height="4"/>
		<rect x="931" y="1086" class="st60" width="58" height="4"/>
		<rect x="931" y="1090" class="st61" width="58" height="4"/>
		<rect x="931" y="1103" class="st60" width="58" height="4"/>
		<rect x="931" y="1107" class="st61" width="58" height="4"/>
		<rect x="931" y="1120" class="st60" width="58" height="4"/>
		<rect x="931" y="1124" class="st61" width="58" height="4"/>
		<rect x="931" y="1137" class="st60" width="58" height="4"/>
		<rect x="931" y="1141" class="st61" width="58" height="4"/>
		<rect x="931" y="1154" class="st60" width="58" height="4"/>
		<rect x="931" y="1158" class="st61" width="58" height="4"/>
		<rect x="931" y="1171" class="st60" width="58" height="4"/>
		<rect x="931" y="1175" class="st61" width="58" height="4"/>
		<rect x="931" y="1188" class="st60" width="58" height="4"/>
		<rect x="931" y="1192" class="st61" width="58" height="4"/>
		<rect x="931" y="1205" class="st60" width="58" height="4"/>
		<rect x="931" y="1209" class="st61" width="58" height="4"/>
		<rect x="931" y="1222" class="st60" width="58" height="4"/>
		<rect x="931" y="1226" class="st61" width="58" height="4"/>
		<rect x="931" y="1239" class="st60" width="58" height="4"/>
		<rect x="931" y="1243" class="st61" width="58" height="4"/>
		<rect x="931" y="1256" class="st60" width="58" height="4"/>
		<rect x="931" y="1260" class="st61" width="58" height="4"/>
		<rect x="939" y="689" class="st62" width="4" height="567"/>
		<rect x="935" y="689" class="st63" width="4" height="567"/>
		<rect x="981" y="689" class="st62" width="4" height="567"/>
		<rect x="977" y="689" class="st63" width="4" height="567"/>
	</g>
</g>
<g id="Layer_18">
	<g id="Chest">
		<rect x="994" y="619" class="st64" width="116" height="56"/>
		<rect x="998" y="639" class="st65" width="108" height="32"/>
		<rect x="998" y="623" class="st65" width="108" height="12"/>
		<rect x="1048" y="629" class="st66" width="9" height="18"/>
	</g>
</g>
<g id="Layer_17">
	<g id="Water">
		<polyline class="st67" points="1870,705 1831,697 1754,697 1736,688 1660.7,688 1638,682 1380.7,682 1393,689 1328,689 1342,697 
			1275,697 1287.2,705 		"/>
		<polygon class="st68" points="1287.2,705 1287.2,782.3 1434,782.3 1434,858.3 1724,858.3 1724,781.7 1870,781.7 1870,705 		"/>
	</g>
</g>
<g id="Layer_16">
	<g id="Blue_Orchide">
		<polygon class="st69" points="1362,645 1362,653 1342,653 1342,649 1337,649 1337,644 1342,644 1342,641 1346,641 1346,645 
			1348,645 1348,641 1360,641 1360,645 		"/>
		<rect x="1351" y="649" class="st70" width="5" height="4"/>
		<rect x="1351" y="653" class="st71" width="5" height="33"/>
		<rect x="1351" y="663" class="st72" width="5" height="4"/>
		<rect x="1336" y="666" class="st73" width="5" height="5"/>
		<rect x="1346" y="676" class="st74" width="5" height="5"/>
		<rect x="1341" y="671" class="st75" width="5" height="5"/>
		<rect x="1356" y="673" class="st74" width="3" height="5"/>
		<rect x="1359" y="668" class="st75" width="3" height="5"/>
	</g>
</g>
<g id="Layer_15">
	<g id="Red_Rose">
		<rect x="1120" y="634" class="st76" width="3" height="27"/>
		<polygon class="st77" points="1127.4,628 1127.4,632 1130,632 1130,638 1124.9,638 1124.9,634 1119.7,634 1119.7,638 1115.9,638 
			1115.9,634 1112,634 1112,622 1114.6,622 1114.6,618 1127.4,618 1127.4,622 1130,622 1130,628 		"/>
		<rect x="1119" y="623" class="st78" width="5" height="8"/>
		<rect x="1117" y="651" class="st79" width="3" height="7"/>
		<rect x="1114" y="647" class="st80" width="3" height="7"/>
		<rect x="1111" y="645" class="st81" width="3" height="4"/>
		<rect x="1123" y="648" class="st80" width="2" height="7"/>
		<rect x="1125" y="644" class="st81" width="2" height="6"/>
	</g>
</g>
<g id="Layer_14">
	<g id="Daline">
		<polygon class="st82" points="628,664 628,670 633,670 633,675 610,675 610,670 615,670 615,666 610,666 610,659 616,659 616,661 
			628,661 628,659 633,659 633,664 		"/>
		<polygon class="st83" points="627,665 627,675 616,675 616,665 619,665 619,669 625,669 625,665 		"/>
		<rect x="619" y="675" class="st84" width="4" height="8"/>
		<polygon class="st85" points="627,684 627,687 629,687 629,691 624,691 624,695 617,695 617,690 614,690 614,685 610,685 610,679 
			614,679 614,684 617,684 617,682 624,682 624,683 626,683 626,679 629,679 629,684 		"/>
	</g>
</g>
<g id="Layer_13">
	<g id="Blue_Orchid">
		<polygon class="st86" points="664,635 664,639 662,639 662,644 640,644 640,635 644,635 644,630 656,630 656,635 658,635 658,629 
			662,629 662,635 		"/>
		<rect x="647" y="639" class="st87" width="6" height="5"/>
		<rect x="648.8" y="644" class="st70" width="3.3" height="2.6"/>
		<rect x="648.8" y="646.6" class="st71" width="3.3" height="21.6"/>
		<rect x="648.8" y="653.2" class="st72" width="3.3" height="2.6"/>
		<rect x="639" y="654.1" class="st73" width="3.3" height="3.3"/>
		<rect x="645.5" y="660.7" class="st74" width="3.3" height="3.3"/>
		<rect x="642.3" y="657.4" class="st75" width="3.3" height="3.3"/>
		<rect x="658.5" y="651.1" class="st73" width="3.3" height="3.3"/>
		<rect x="652" y="657.7" class="st74" width="3.3" height="3.3"/>
		<rect x="655.3" y="654.4" class="st75" width="3.3" height="3.3"/>
	</g>
</g>
<g id="Layer_12">
	<g id="RedRose">
		<rect x="118" y="628" class="st76" width="3" height="29"/>
		<polygon class="st88" points="132,619 132,624 127,624 127,629 119,629 119,634 110,634 110,629 105,629 105,624 110,624 110,619 
			117,619 117,614 127,614 127,619 		"/>
		<rect x="115" y="621" class="st89" width="7" height="5"/>
		<rect x="121" y="648" class="st90" width="3" height="5"/>
		<rect x="124" y="643" class="st91" width="3" height="6"/>
		<rect x="127" y="638" class="st92" width="3" height="6"/>
		<rect x="116" y="647" class="st90" width="2" height="5"/>
		<rect x="114" y="642" class="st91" width="2" height="6"/>
		<rect x="112" y="637" class="st92" width="2" height="6"/>
	</g>
</g>
<g id="Layer_11">
	<g id="Fern">
		<polygon class="st93" points="301,642 301,648 295,648 295,642 289,642 289,646 284,646 284,651 281,651 281,655 272,655 272,651 
			269,651 269,648 262,648 262,643 257,643 257,648 251,648 251,642 257,642 257,637 262,637 262,632 266,632 266,628 262,628 
			262,623 266,623 266,618 259,618 259,616 255,616 255,618 250,618 250,612 255,612 255,608 259,608 259,604 266,604 266,602 
			269,602 269,599 262,599 262,596 255,596 255,592 258,592 258,588 262,588 262,583 265,583 265,579 262,579 262,581 258,581 
			258,576 262,576 262,571 268,571 268,566 272,566 272,571 274,571 274,575 278,575 278,571 282,571 282,567 289,567 289,571 
			295,571 295,578 291,578 291,576 288,576 288,579 286,579 286,582 290,582 290,586 295,586 295,591 299,591 299,595 294,595 
			294,591 290,591 290,598 286,598 286,604 290,604 290,608 294,608 294,613 299,613 299,622 295,622 295,618 289,618 289,622 
			293,622 293,626 289,626 289,630 293,630 293,634 296,634 296,642 		"/>
		<polygon class="st94" points="289,614 289,611 284,611 284,614 276,614 276,624 279,624 279,633 289,633 289,636 291,636 291,639 
			288,639 288,636 282,636 282,639 279,639 279,667 274,667 274,655 276,655 276,642 268,642 268,639 263,639 263,642 259,642 
			259,639 262,639 262,636 269,636 269,639 276,639 276,625 274,625 274,628 270,628 270,625 273,625 273,614 270,614 270,611 
			264,611 264,614 261,614 261,611 263,611 263,608 273,608 273,594 270,594 270,591 264,591 264,594 261,594 261,591 263,591 
			263,588 270,588 270,582 267,582 267,576 264,576 264,573 267,573 267,575 270,575 270,581 273,581 273,593 279,593 279,587 
			282,587 282,571 288,571 288,574 285,574 285,587 291,587 291,590 285,590 285,588 282,588 282,593 280,593 280,596 282,596 
			282,602 279,602 279,596 276,596 276,609 273,609 273,613 276,613 276,611 283,611 283,608 290,608 290,611 293,611 293,614 		"/>
	</g>
</g>
<g id="Layer_10">
	<g id="Fern3">
		<polygon class="st93" points="92.1,640.6 92.1,638.5 87.7,638.5 87.7,640.6 80.1,640.6 80.1,646.1 84.5,646.1 84.5,651.5 
			80.1,651.5 80.1,655.9 84.5,655.9 84.5,661.3 89.9,661.3 89.9,666.8 96.5,666.8 96.5,673.3 89.9,673.3 89.9,667.9 84.5,667.9 
			84.5,673.3 76.8,673.3 76.8,676.6 73.6,676.6 73.6,680.9 63.8,680.9 63.8,676.6 60.5,676.6 60.5,671.1 55.1,671.1 55.1,666.8 
			48.5,666.8 48.5,673.3 42,673.3 42,666.8 47.5,666.8 47.5,658.1 50.7,658.1 50.7,653.7 55.1,653.7 55.1,649.3 50.7,649.3 
			50.7,645 55.1,645 55.1,640.6 48.5,640.6 48.5,645 44.2,645 44.2,635.2 49.6,635.2 49.6,629.7 54,629.7 54,625.4 58.3,625.4 
			58.3,618.8 54,618.8 54,611.2 49.6,611.2 49.6,615.6 44.2,615.6 44.2,611.2 48.5,611.2 48.5,605.8 54,605.8 54,601.4 58.3,601.4 
			58.3,598.2 56.2,598.2 56.2,594.9 52.9,594.9 52.9,597.1 49,597.1 49,600 44,600 44,595 48.5,595 48.5,589.5 55.1,589.5 
			55.1,585.1 62.7,585.1 62.7,589.5 67.1,589.5 67.1,593.8 71.4,593.8 71.4,589.5 73.6,589.5 73.6,584 79.9,584 79.9,589.5 
			84.5,589.5 84.5,594.9 90.8,594.9 90.8,601.3 86.5,601.3 86.5,598.2 82.2,598.2 82.2,602.5 85.5,602.5 85.5,608 88.8,608 
			88.8,612.3 92.1,612.3 92.1,616.7 84.5,616.7 84.5,619.9 76.8,619.9 76.8,623.2 80.1,623.2 80.1,625.4 87.7,625.4 87.7,629.7 
			92.1,629.7 92.1,634.1 97.5,634.1 97.5,640.6 		"/>
		<polygon class="st94" points="56,640 56,637 61,637 61,640 69,640 69,650 66,650 66,659 56,659 56,662 54,662 54,665 57,665 
			57,662 63,662 63,665 66,665 66,693 71,693 71,681 69,681 69,668 77,668 77,665 82,665 82,668 86,668 86,665 83,665 83,662 
			76,662 76,665 69,665 69,651 71,651 71,654 75,654 75,651 72,651 72,640 75,640 75,637 81,637 81,640 84,640 84,637 82,637 
			82,634 72,634 72,620 75,620 75,617 81,617 81,620 84,620 84,617 82,617 82,614 75,614 75,608 78,608 78,602 81,602 81,599 
			78,599 78,601 75,601 75,607 72,607 72,619 66,619 66,613 63,613 63,597 57,597 57,600 60,600 60,613 54,613 54,616 60,616 
			60,614 63,614 63,619 65,619 65,622 63,622 63,628 66,628 66,622 69,622 69,635 72,635 72,639 69,639 69,637 62,637 62,634 
			55,634 55,637 52,637 52,640 		"/>
	</g>
</g>
<g id="Layer_9">
	<g id="Fern2">
		<polygon class="st93" points="559,651 559,657 553,657 553,651 547,651 547,655 542,655 542,660 539,660 539,664 530,664 530,660 
			527,660 527,657 520,657 520,652 515,652 515,657 509,657 509,651 515,651 515,646 520,646 520,641 524,641 524,637 520,637 
			520,632 524,632 524,627 517,627 517,625 513,625 513,627 508,627 508,621 513,621 513,617 517,617 517,613 524,613 524,611 
			527,611 527,608 520,608 520,605 513,605 513,601 516,601 516,597 520,597 520,592 523,592 523,588 520,588 520,590 516,590 
			516,585 520,585 520,580 526,580 526,575 530,575 530,580 532,580 532,584 536,584 536,580 540,580 540,576 547,576 547,580 
			553,580 553,587 549,587 549,585 546,585 546,588 544,588 544,591 548,591 548,595 553,595 553,600 557,600 557,604 552,604 
			552,600 548,600 548,607 544,607 544,613 548,613 548,617 552,617 552,622 557,622 557,631 553,631 553,627 547,627 547,631 
			551,631 551,635 547,635 547,639 551,639 551,643 554,643 554,651 		"/>
		<polygon class="st94" points="521,623 521,620 526,620 526,623 534,623 534,633 531,633 531,642 521,642 521,645 519,645 519,648 
			522,648 522,645 528,645 528,648 531,648 531,676 536,676 536,664 534,664 534,651 542,651 542,648 547,648 547,651 551,651 
			551,648 548,648 548,645 541,645 541,648 534,648 534,634 536,634 536,637 540,637 540,634 537,634 537,623 540,623 540,620 
			546,620 546,623 549,623 549,620 547,620 547,617 537,617 537,603 540,603 540,600 546,600 546,603 549,603 549,600 547,600 
			547,597 540,597 540,591 543,591 543,585 546,585 546,582 543,582 543,584 540,584 540,590 537,590 537,602 531,602 531,596 
			528,596 528,580 522,580 522,583 525,583 525,596 519,596 519,599 525,599 525,597 528,597 528,602 530,602 530,605 528,605 
			528,611 531,611 531,605 534,605 534,618 537,618 537,622 534,622 534,620 527,620 527,617 520,617 520,620 517,620 517,623 		"/>
	</g>
</g>
<g id="Layer_8">
	<g id="Fern4">
		<polygon class="st93" points="913,596 913,592 907,592 907,596 911,596 911,600 908,600 908,602 907,602 907,604 911,604 911,608 
			914,608 914,616 919,616 919,622 913,622 913,617 908,617 908,622 902,622 902,625 899,625 899,629 889,629 889,625 886,625 
			886,622 880,622 880,617 875,617 875,622 869,622 869,616 874,616 874,608 877,608 877,604 881,604 881,602 880,602 880,600 
			877,600 877,596 881,596 881,592 875,592 875,596 871,596 871,592 868,592 868,586 873,586 873,582 877,582 877,578 884,578 
			884,573 880,573 880,570 873,570 873,569 871,569 871,565 875,565 875,560 880,560 880,556 883,556 883,553 880,553 880,555 
			876,555 876,552 875,552 875,545 881,545 881,541 886,541 886,540 890,540 890,545 892,545 892,549 896,549 896,545 898,545 
			898,540 902,540 902,541 907,541 907,545 913,545 913,552 912,552 912,555 908,555 908,553 905,553 905,556 908,556 908,560 
			913,560 913,565 917,565 917,569 915,569 915,570 908,570 908,573 904,573 904,578 911,578 911,582 915,582 915,586 920,586 
			920,592 917,592 917,596 		"/>
		<polygon class="st94" points="880,588 880,585 885,585 885,588 893,588 893,598 890,598 890,607 880,607 880,610 878,610 878,613 
			881,613 881,610 887,610 887,613 890,613 890,641 895,641 895,629 893,629 893,616 901,616 901,613 906,613 906,616 910,616 
			910,613 907,613 907,610 900,610 900,613 893,613 893,599 895,599 895,602 899,602 899,599 896,599 896,588 899,588 899,585 
			905,585 905,588 908,588 908,585 906,585 906,582 896,582 896,568 899,568 899,565 905,565 905,568 908,568 908,565 906,565 
			906,562 899,562 899,556 902,556 902,550 905,550 905,547 902,547 902,549 899,549 899,555 896,555 896,567 890,567 890,561 
			887,561 887,545 881,545 881,548 884,548 884,561 878,561 878,564 884,564 884,562 887,562 887,567 889,567 889,570 887,570 
			887,576 890,576 890,570 893,570 893,583 896,583 896,587 893,587 893,585 886,585 886,582 879,582 879,585 876,585 876,588 		"/>
	</g>
</g>
<g id="Layer_7">
	<g id="Fern5">
		<polygon class="st93" points="1307,654 1307,660 1301,660 1301,654 1295,654 1295,658 1290,658 1290,663 1287,663 1287,667 
			1278,667 1278,663 1275,663 1275,660 1268,660 1268,655 1263,655 1263,660 1257,660 1257,654 1263,654 1263,649 1268,649 
			1268,644 1272,644 1272,640 1268,640 1268,635 1272,635 1272,630 1265,630 1265,628 1261,628 1261,630 1256,630 1256,624 
			1261,624 1261,620 1265,620 1265,616 1272,616 1272,614 1275,614 1275,611 1268,611 1268,608 1261,608 1261,604 1264,604 
			1264,600 1268,600 1268,595 1271,595 1271,591 1268,591 1268,593 1264,593 1264,588 1268,588 1268,583 1274,583 1274,578 
			1278,578 1278,583 1280,583 1280,587 1284,587 1284,583 1288,583 1288,579 1295,579 1295,583 1301,583 1301,590 1297,590 
			1297,588 1294,588 1294,591 1292,591 1292,594 1296,594 1296,598 1301,598 1301,603 1305,603 1305,607 1300,607 1300,603 
			1296,603 1296,610 1292,610 1292,616 1296,616 1296,620 1300,620 1300,625 1305,625 1305,634 1301,634 1301,630 1295,630 
			1295,634 1299,634 1299,638 1295,638 1295,642 1299,642 1299,646 1302,646 1302,654 		"/>
		<polygon class="st94" points="1295,626 1295,623 1290,623 1290,626 1282,626 1282,636 1285,636 1285,645 1295,645 1295,648 
			1297,648 1297,651 1294,651 1294,648 1288,648 1288,651 1285,651 1285,679 1280,679 1280,667 1282,667 1282,654 1274,654 
			1274,651 1269,651 1269,654 1265,654 1265,651 1268,651 1268,648 1275,648 1275,651 1282,651 1282,637 1280,637 1280,640 
			1276,640 1276,637 1279,637 1279,626 1276,626 1276,623 1270,623 1270,626 1267,626 1267,623 1269,623 1269,620 1279,620 
			1279,606 1276,606 1276,603 1270,603 1270,606 1267,606 1267,603 1269,603 1269,600 1276,600 1276,594 1273,594 1273,588 
			1270,588 1270,585 1273,585 1273,587 1276,587 1276,593 1279,593 1279,605 1285,605 1285,599 1288,599 1288,583 1294,583 
			1294,586 1291,586 1291,599 1297,599 1297,602 1291,602 1291,600 1288,600 1288,605 1286,605 1286,608 1288,608 1288,614 
			1285,614 1285,608 1282,608 1282,621 1279,621 1279,625 1282,625 1282,623 1289,623 1289,620 1296,620 1296,623 1299,623 
			1299,626 		"/>
	</g>
</g>
<g id="Layer_6">
	<g id="Fern6">
		<polygon class="st93" points="1488,652 1488,658 1482,658 1482,652 1476,652 1476,656 1471,656 1471,661 1468,661 1468,665 
			1459,665 1459,661 1456,661 1456,658 1449,658 1449,653 1444,653 1444,658 1438,658 1438,652 1444,652 1444,647 1449,647 
			1449,642 1453,642 1453,638 1449,638 1449,633 1453,633 1453,628 1446,628 1446,626 1442,626 1442,628 1437,628 1437,622 
			1442,622 1442,618 1446,618 1446,614 1453,614 1453,612 1456,612 1456,609 1449,609 1449,606 1442,606 1442,602 1445,602 
			1445,598 1449,598 1449,593 1452,593 1452,589 1449,589 1449,591 1445,591 1445,586 1449,586 1449,581 1455,581 1455,576 
			1459,576 1459,581 1461,581 1461,585 1465,585 1465,581 1469,581 1469,577 1476,577 1476,581 1482,581 1482,588 1478,588 
			1478,586 1475,586 1475,589 1473,589 1473,592 1477,592 1477,596 1482,596 1482,601 1486,601 1486,605 1481,605 1481,601 
			1477,601 1477,608 1473,608 1473,614 1477,614 1477,618 1481,618 1481,623 1486,623 1486,632 1482,632 1482,628 1476,628 
			1476,632 1480,632 1480,636 1476,636 1476,640 1480,640 1480,644 1483,644 1483,652 		"/>
		<polygon class="st94" points="1451,624 1451,621 1456,621 1456,624 1464,624 1464,634 1461,634 1461,643 1451,643 1451,646 
			1449,646 1449,649 1452,649 1452,646 1458,646 1458,649 1461,649 1461,677 1466,677 1466,665 1464,665 1464,652 1472,652 
			1472,649 1477,649 1477,652 1481,652 1481,649 1478,649 1478,646 1471,646 1471,649 1464,649 1464,635 1466,635 1466,638 
			1470,638 1470,635 1467,635 1467,624 1470,624 1470,621 1476,621 1476,624 1479,624 1479,621 1477,621 1477,618 1467,618 
			1467,604 1470,604 1470,601 1476,601 1476,604 1479,604 1479,601 1477,601 1477,598 1470,598 1470,592 1473,592 1473,586 
			1476,586 1476,583 1473,583 1473,585 1470,585 1470,591 1467,591 1467,603 1461,603 1461,597 1458,597 1458,581 1452,581 
			1452,584 1455,584 1455,597 1449,597 1449,600 1455,600 1455,598 1458,598 1458,603 1460,603 1460,606 1458,606 1458,612 
			1461,612 1461,606 1464,606 1464,619 1467,619 1467,623 1464,623 1464,621 1457,621 1457,618 1450,618 1450,621 1447,621 
			1447,624 		"/>
	</g>
</g>
<g id="Layer_5">
	<g id="Fern7">
		<polygon class="st93" points="1753,650 1753,656 1747,656 1747,650 1741,650 1741,654 1736,654 1736,659 1733,659 1733,663 
			1724,663 1724,659 1721,659 1721,656 1714,656 1714,651 1709,651 1709,656 1703,656 1703,650 1709,650 1709,645 1714,645 
			1714,640 1718,640 1718,636 1714,636 1714,631 1718,631 1718,626 1711,626 1711,624 1707,624 1707,626 1702,626 1702,620 
			1707,620 1707,616 1711,616 1711,612 1718,612 1718,610 1721,610 1721,607 1714,607 1714,604 1707,604 1707,600 1710,600 
			1710,596 1714,596 1714,591 1717,591 1717,587 1714,587 1714,589 1710,589 1710,584 1714,584 1714,579 1720,579 1720,574 
			1724,574 1724,579 1726,579 1726,583 1730,583 1730,579 1734,579 1734,575 1741,575 1741,579 1747,579 1747,586 1743,586 
			1743,584 1740,584 1740,587 1738,587 1738,590 1742,590 1742,594 1747,594 1747,599 1751,599 1751,603 1746,603 1746,599 
			1742,599 1742,606 1738,606 1738,612 1742,612 1742,616 1746,616 1746,621 1751,621 1751,630 1747,630 1747,626 1741,626 
			1741,630 1745,630 1745,634 1741,634 1741,638 1745,638 1745,642 1748,642 1748,650 		"/>
		<polygon class="st94" points="1741,622 1741,619 1736,619 1736,622 1728,622 1728,632 1731,632 1731,641 1741,641 1741,644 
			1743,644 1743,647 1740,647 1740,644 1734,644 1734,647 1731,647 1731,675 1726,675 1726,663 1728,663 1728,650 1720,650 
			1720,647 1715,647 1715,650 1711,650 1711,647 1714,647 1714,644 1721,644 1721,647 1728,647 1728,633 1726,633 1726,636 
			1722,636 1722,633 1725,633 1725,622 1722,622 1722,619 1716,619 1716,622 1713,622 1713,619 1715,619 1715,616 1725,616 
			1725,602 1722,602 1722,599 1716,599 1716,602 1713,602 1713,599 1715,599 1715,596 1722,596 1722,590 1719,590 1719,584 
			1716,584 1716,581 1719,581 1719,583 1722,583 1722,589 1725,589 1725,601 1731,601 1731,595 1734,595 1734,579 1740,579 
			1740,582 1737,582 1737,595 1743,595 1743,598 1737,598 1737,596 1734,596 1734,601 1732,601 1732,604 1734,604 1734,610 
			1731,610 1731,604 1728,604 1728,617 1725,617 1725,621 1728,621 1728,619 1735,619 1735,616 1742,616 1742,619 1745,619 
			1745,622 		"/>
	</g>
</g>
<g id="Layer_4">
	<g id="RedRose-2">
		<rect x="1588.2" y="623.7" class="st76" width="2.5" height="24.3"/>
		<polygon class="st95" points="1579,616.2 1579,620.4 1583.2,620.4 1583.2,624.6 1589.9,624.6 1589.9,628.7 1597.4,628.7 
			1597.4,624.6 1601.6,624.6 1601.6,620.4 1597.4,620.4 1597.4,616.2 1591.6,616.2 1591.6,612 1583.2,612 1583.2,616.2 		"/>
		<rect x="1587.4" y="617.9" class="st96" width="5.9" height="4.2"/>
		<rect x="1585.7" y="640.5" class="st90" width="2.5" height="4.2"/>
		<rect x="1583.2" y="636.3" class="st91" width="2.5" height="5"/>
		<rect x="1580.7" y="632.1" class="st92" width="2.5" height="5"/>
		<rect x="1590.7" y="639.6" class="st90" width="1.7" height="4.2"/>
		<rect x="1592.4" y="635.5" class="st91" width="1.7" height="5"/>
		<rect x="1594.1" y="631.2" class="st92" width="1.7" height="5"/>
	</g>
</g>
<g id="Layer_3">
	<g id="Blue_Orchide-2">
		<polygon class="st97" points="1635,637 1635,645 1655,645 1655,641 1660,641 1660,636 1655,636 1655,633 1651,633 1651,637 
			1649,637 1649,633 1637,633 1637,637 		"/>
		<rect x="1641" y="641" class="st98" width="5" height="4"/>
		<rect x="1641" y="645" class="st71" width="5" height="33"/>
		<rect x="1641" y="655" class="st72" width="5" height="4"/>
		<rect x="1656" y="658" class="st73" width="5" height="5"/>
		<rect x="1646" y="668" class="st74" width="5" height="5"/>
		<rect x="1651" y="663" class="st75" width="5" height="5"/>
		<rect x="1638" y="665" class="st74" width="3" height="5"/>
		<rect x="1635" y="660" class="st75" width="3" height="5"/>
	</g>
</g>
<linearGradient id="SVGID_1_" gradientUnits="userSpaceOnUse" x1="961" y1="-9.094947e-13" x2="961" y2="306" gradientTransform="matrix(1 0 0 -1 0 1264)">
	<stop  offset="0" style="stop-color:#000000"/>
	<stop  offset="1" style="stop-color:#020202;stop-opacity:0"/>
</linearGradient>
<rect y="958" class="st99" width="1922" height="306"/>
</svg>
