<?xml version="1.0" encoding="UTF-8"?>
<svg id="Layer_1" data-name="Layer 1" xmlns="http://www.w3.org/2000/svg" viewBox="0 0 350.47 426.34">
  <defs>
    <style>
      .cls-1 {
        fill: #4a4b4b;
      }

      .cls-2 {
        fill: #646665;
      }

      .cls-3 {
        fill: #d82b25;
      }

      .cls-4 {
        fill: #2a2b2b;
      }

      .cls-5 {
        fill: #d93829;
      }

      .cls-6 {
        fill: #959595;
      }

      .cls-7 {
        fill: #bab8b8;
      }

      .cls-8 {
        fill: #7f1f1d;
      }

      .cls-9 {
        fill: #912421;
      }

      .cls-10 {
        fill: #3b3d3d;
      }

      .cls-11 {
        fill: #6d6e6e;
      }

      .cls-12 {
        fill: #5e1512;
      }

      .cls-13 {
        fill: #999;
      }

      .cls-14 {
        fill: #303232;
      }

      .cls-15 {
        fill: #8a8a8a;
      }

      .cls-16 {
        fill: #df6351;
      }

      .cls-17 {
        fill: #6e1c18;
      }

      .cls-18 {
        fill: #c1c0c0;
      }
    </style>
  </defs>
  <polygon class="cls-15" points="45.16 328.55 73.85 408.43 128.97 408.43 103.28 330.43 45.16 328.55"/>
  <polygon class="cls-11" points="140.41 368.49 128.97 408.43 104.78 343.36 133.47 343.36 140.41 368.49"/>
  <polygon class="cls-2" points="59.78 329.49 87.06 408.43 113.05 408.43 87.06 328.55 59.78 329.49"/>
  <polygon class="cls-13" points="230.22 360.05 86.9 355.55 78.46 324.43 230.22 324.43 230.22 360.05"/>
  <polygon class="cls-11" points="254.17 324.43 254.17 339.61 230.22 360.05 230.22 324.43 254.17 324.43"/>
  <polygon class="cls-11" points="350.47 424.29 346.88 358.97 334.04 244.56 289.56 426.34 350.47 424.29"/>
  <polygon class="cls-6" points="274.31 343.58 289.56 426.33 350.47 424.29 332.54 289.05 271.5 292.4 274.31 343.58"/>
  <polygon class="cls-2" points="289.56 336.73 308.3 425.71 334.04 424.84 313.27 290.77 289.56 336.73"/>
  <polygon class="cls-18" points="0 71.17 0 328.72 292.83 336.73 292.83 62.39 0 71.17"/>
  <polygon class="cls-9" points="35.18 144.11 51.37 144.11 51.37 125.86 234.63 121.75 234.63 140.77 254.17 140.77 253.14 315.55 35.18 310.66 35.18 144.11"/>
  <polygon class="cls-1" points="97.61 96.59 100.42 3.09 175.41 0 171.22 94.88 97.61 96.59"/>
  <polygon class="cls-4" points="105 102.89 97.61 96.59 171.22 94.88 177.83 100.6 105 102.89"/>
  <polygon class="cls-10" points="175.41 .09 224.7 63.95 178.2 65.34 177.83 100.6 171.22 94.88 175.41 .09"/>
  <polygon class="cls-14" points="113.78 77.4 115.42 17.71 159.24 15.74 156.79 76.31 113.78 77.4"/>
  <polygon class="cls-13" points="16.2 309.6 35.18 310.66 35.18 144.11 51.37 144.11 51.37 125.86 234.63 121.75 234.63 140.77 254.17 141.29 253.14 315.55 273.25 316.02 273.25 120.54 254.17 119.85 254.17 99.82 34.62 104.3 34.38 124.11 16.2 124.78 16.2 309.6"/>
  <polygon class="cls-13" points="305.14 288.89 305.14 318.61 309.71 318.61 292.83 336.73 292.83 62.39 323.25 90.67 322.01 288.89 305.14 288.89"/>
  <polygon class="cls-12" points="296.48 178.63 320.01 182.12 320.01 196.09 296.48 197.53 296.48 178.63"/>
  <polygon class="cls-17" points="296.48 216.49 296.48 254.76 320.01 242.89 320.01 211.04 296.48 216.49"/>
  <polygon class="cls-11" points="297.47 159.04 319.5 165.78 319.5 104.17 297.47 83.9 297.47 159.04"/>
  <polygon class="cls-2" points="302.06 327.44 297.85 290.91 312.58 279.79 316.46 311.77 302.06 327.44"/>
  <polygon class="cls-7" points="297.85 290.91 308.04 245.98 334.04 244.56 332.55 289.17 297.85 290.91"/>
  <polygon class="cls-8" points="35.18 167.52 254.02 165.78 254.02 196.16 35.18 196.16 35.18 167.52"/>
  <polygon class="cls-8" points="35.18 290.71 253.54 290.91 253.14 315.55 35.18 310.66 35.18 290.71"/>
  <polygon class="cls-8" points="35.18 231.11 253.57 229.37 253.57 259.75 35.18 259.75 35.18 231.11"/>
  <polygon class="cls-16" points="111.7 246.77 111.7 283.92 170.99 284.83 170.99 248.05 191.67 248.05 191.67 305.51 91.2 301.85 91.2 246.77 111.7 246.77"/>
  <polygon class="cls-3" points="70.34 143.37 70.34 161.85 87.18 161.85 87.18 180.33 124.88 180.33 124.88 161.85 105.66 161.85 105.66 143.37 70.34 143.37"/>
  <polygon class="cls-3" points="160.2 160.94 160.2 180.33 197.53 180.33 197.53 160.94 216.02 160.94 216.02 141.35 178.68 141.35 178.68 160.84 160.2 160.94"/>
  <rect class="cls-5" x="70.34" y="180.33" width="36.05" height="56.18"/>
  <rect class="cls-5" x="177.83" y="180.88" width="38.19" height="56.73"/>
</svg>