<?xml version="1.0" encoding="utf-8"?>
<!-- Generator: Adobe Illustrator 27.0.0, SVG Export Plug-In . SVG Version: 6.00 Build 0)  -->
<svg version="1.1" id="Layer_2_00000066508838766883321260000003112470567722718890_"
	 xmlns="http://www.w3.org/2000/svg" xmlns:xlink="http://www.w3.org/1999/xlink" x="0px" y="0px" viewBox="0 0 572 407.1"
	 style="enable-background:new 0 0 572 407.1;" xml:space="preserve">
<style type="text/css">
	.st0{fill:#00857F;}
	.st1{fill:#00A19A;}
	.st2{fill:#AF4E34;}
	.st3{fill:#A76738;}
	.st4{fill:#DE6439;}
	.st5{fill:#985D34;}
	.st6{fill:#451F17;}
	.st7{fill:#63281D;}
	.st8{fill:#D4803E;}
	.st9{fill:#D6D6D6;}
	.st10{fill:#524593;}
	.st11{fill:#B65436;}
	.st12{fill:#7B3927;}
	.st13{fill:#CA7A3D;}
	.st14{fill:#00938C;}
	.st15{fill:#3BB0AE;}
	.st16{fill:#DD6439;}
	.st17{fill:#00AAA3;}
	.st18{fill:#B16C3A;}
</style>
<g id="handRight">
	<polygon class="st0" points="367.6,249.3 415,186.3 382.8,142.6 339.1,206.6 	"/>
	<polygon class="st1" points="472.5,212.1 415,186.3 367.6,249.3 425.6,274.2 	"/>
	<polygon class="st2" points="516.2,46 415,186.3 382.8,142.6 477.6,7.8 	"/>
	<polygon class="st3" points="572,78.6 472.5,212.1 415,186.3 516.2,46 	"/>
	<polygon class="st4" points="477.6,7.8 535.5,40.9 572,78.6 516.2,46 	"/>
</g>
<g id="head">
	<polygon class="st5" points="208,182.6 208,115.4 201.5,119.6 199.7,97 188.6,109.9 192.8,150 184.5,154.6 184.5,175.3 
		174.8,184.5 176.7,205.2 	"/>
	<polygon class="st6" points="167.4,51.6 200.9,7.2 208,115.4 201.5,119.6 199.7,97 188.6,109.9 192.8,150 184.5,154.6 184.5,175.3 
		174.8,184.5 	"/>
	<polygon class="st7" points="364.8,13.7 367.6,77.3 348.3,75.5 347.3,54.7 223,51 224.4,72.5 205.2,72.3 200.9,7.2 	"/>
	<polygon class="st8" points="208,182.6 373.4,180.2 367.6,77.3 348.3,75.5 347.3,54.7 223,51 224.4,72.5 205.2,72.3 	"/>
	<polygon class="st9" points="225.4,94.1 247.4,94.8 248.5,116.8 226.4,116.8 	"/>
	<polygon class="st10" points="268.7,94.9 247.4,94.8 248.5,116.8 268.7,116.8 	"/>
	<polygon class="st10" points="310.3,95.8 310.3,117.9 330.3,117.9 329.2,95.8 	"/>
	<polygon class="st9" points="349.4,95.8 329.2,95.8 330.3,117.9 349.4,117.9 	"/>
	<polygon class="st11" points="268.7,116.8 269.5,138 311.8,138 310.3,117.9 	"/>
	<polygon class="st7" points="249.4,138 250.2,182.6 334.1,180.9 332.2,138 311.8,138 311.8,159.1 270.1,159.7 269.5,138 	"/>
	<polygon class="st12" points="208,182.6 177.8,201 341.1,198.9 373.4,180.2 	"/>
</g>
<g id="body">
	<polygon class="st13" points="213,193.2 240.4,197.5 240.4,215.2 260.9,215.2 260.9,236.2 301,235 301,213.6 320.9,213.6 
		320.9,193.2 341.1,191 	"/>
	<polygon class="st14" points="182.3,198.5 191.4,191.8 198.3,196 201.1,407.1 184.8,387.1 	"/>
	<polygon class="st15" points="201.1,407.1 198.3,196 240.6,196 240.4,215.2 260.9,215.2 260.9,236.2 301,235 301,213.6 
		320.9,213.6 320.9,193.2 359.7,191.8 357.6,391.4 	"/>
</g>
<g id="handLeft">
	<polygon class="st16" points="0,34.9 89.3,0 101.2,27.6 6,64.8 	"/>
	<polygon class="st17" points="124.2,300 88.3,230 174.8,191.8 208,263.6 	"/>
	<polygon class="st18" points="88.3,230 6,64.8 101.2,27.6 174.8,191.8 	"/>
</g>
</svg>
