<?xml version="1.0" encoding="UTF-8"?>
<svg xmlns="http://www.w3.org/2000/svg" viewBox="0 0 353.61 417.67">
	<defs>
		<style>
		.cls-1 {
			fill: #72a1ff;
		}
	
		.cls-2 {
			fill: #5877bc;
		}
	
		.cls-3 {
			fill: #2ee2c7;
		}
	
		.cls-4 {
			fill: #577aff;
		}
	
		.cls-5 {
			fill: #34ffbc;
		}
	
		.cls-6 {
			fill: #8ec7ff;
		}
	
		.cls-7 {
			fill: #87c4ff;
		}
	
		.cls-8 {
			fill: #3f56ff;
		}
	
		.cls-9 {
			fill: #493fbd;
		}
	
		.cls-10 {
			fill: #435ddf;
		}
	
		.cls-11 {
			fill: #577ae3;
		}
	
		.cls-12 {
			fill: #5aff53;
		}
	
		.cls-13 {
			fill: #fce2ff;
		}
		</style>
	</defs>
	<polygon class="cls-12" points="244.08 136.83 243.01 129.07 247.72 126.48 221.49 62.48 211.06 51.76 186.9 0 203.22 45.76 197.45 48.2 228.84 129.24 244.08 136.83"/>
	<polygon class="cls-3" points="175.69 80.32 142.75 58.38 137.47 69.58 173.24 92.15 175.48 102.68 193.11 110.74 189.85 124.33 252.96 127.25 235.91 109.3 234.65 98.06 190.69 70.28 193.25 86.21 179.74 68.23 175.69 80.32"/>
	<polygon class="cls-5" points="142.75 58.38 137.47 69.58 234.58 130.85 203.43 98.79 142.75 58.38"/>
	<polygon class="cls-1" points="299.26 259.23 312.16 132.97 124.62 121.76 117.5 256.89 299.26 259.23"/>
	<polygon class="cls-11" points="83.13 111.01 124.62 121.76 117.5 256.89 72.32 226.58 83.13 111.01"/>
	<polygon class="cls-7" points="105.71 136.24 53.48 133.21 48.72 225.48 102.8 229.85 105.71 136.24"/>
	<polygon class="cls-13" points="266.95 187.09 176.55 180.4 172.5 243.26 260.69 246.38 266.95 187.09"/>
	<polygon class="cls-6" points="312.16 132.97 217.03 117.24 83.13 111.01 124.62 121.76 312.16 132.97"/>
	<polygon class="cls-4" points="311.03 144.05 334.98 146.19 325.81 235.9 301.66 235.75 311.03 144.05"/>
	<polygon class="cls-9" points="294.82 165.19 292.07 202.17 275.89 200.79 279.27 163.87 294.82 165.19"/>
	<polygon class="cls-9" points="160.09 158.87 157.87 197.72 139.68 196.41 142.68 157.16 160.09 158.87"/>
	<polygon class="cls-8" points="264.83 206.81 245.38 205.13 243.38 224.07 262.84 225.82 264.83 206.81"/>
	<polygon class="cls-8" points="195.61 202.61 194.16 220.93 173.96 220.6 175.18 201.56 195.61 202.61"/>
	<polygon class="cls-1" points="268.59 272.5 260.06 390.41 96.17 388.65 99.47 252.11 268.59 272.5"/>
	<polygon class="cls-13" points="244.28 268.07 240.43 331.63 219.15 331.41 218.86 352.81 159.31 351.07 159.76 331.81 140.86 332.48 145.9 268.12 244.28 268.07"/>
	<polygon class="cls-8" points="274.15 258.91 270.51 273.66 119.47 269.1 97.11 255.39 97.42 243.79 117.5 256.89 274.15 258.91"/>
	<polygon class="cls-1" points="112.26 273.18 80.14 250.52 0 349.58 53.15 374 112.26 273.18"/>
	<polygon class="cls-10" points="262.31 310.57 285.75 402.09 308.96 417.67 268.92 283.96 262.31 310.57"/>
	<polygon class="cls-4" points="303.36 267.83 268.92 283.96 308.96 417.67 353.61 390.55 303.36 267.83"/>
	<polygon class="cls-4" points="58.98 397.13 53.15 374 112.26 273.18 115.48 307.33 58.98 397.13"/>
	<polygon class="cls-10" points="8.02 373.64 0 349.58 53.15 374 58.98 397.13 8.02 373.64"/>
	<polygon class="cls-2" points="115.48 307.33 96.17 338.02 96.35 381.04 115.48 307.33"/>
</svg>